<?xml version="1.0" encoding="UTF-8" standalone="no"?>
<svg
   width="32px"
   height="32px"
   clip-rule="evenodd"
   fill-rule="evenodd"
   stroke-linejoin="round"
   stroke-miterlimit="1.4142"
   version="1.1"
   viewBox="0 0 142 142"
   id="svg5"
   sodipodi:docname="Logo.svg"
   inkscape:version="1.4 (e7c3feb100, 2024-10-09)"
   xmlns:inkscape="http://www.inkscape.org/namespaces/inkscape"
   xmlns:sodipodi="http://sodipodi.sourceforge.net/DTD/sodipodi-0.dtd"
   xmlns="http://www.w3.org/2000/svg"
   xmlns:svg="http://www.w3.org/2000/svg">
  <defs
     id="defs5" />
  <sodipodi:namedview
     id="namedview5"
     pagecolor="#ffffff"
     bordercolor="#000000"
     borderopacity="0.25"
     inkscape:showpageshadow="2"
     inkscape:pageopacity="0.0"
     inkscape:pagecheckerboard="0"
     inkscape:deskcolor="#d1d1d1"
     inkscape:zoom="22.75"
     inkscape:cx="15.978022"
     inkscape:cy="16"
     inkscape:window-width="3440"
     inkscape:window-height="1374"
     inkscape:window-x="0"
     inkscape:window-y="29"
     inkscape:window-maximized="1"
     inkscape:current-layer="svg5" />
  <g
     id="g6"
     transform="matrix(1.1927107,0,0,1.1927107,-11.756623,-15.030878)">
    <path
       transform="matrix(1.0498,0,0,0.95592,-3.4541,9.5884)"
       d="m 17.783,22.263 c -1.6168,2.3528 -2.5629,5.2057 -2.5629,8.2886 v 79.152 c 0,7.0439 8.9411,14.634 14.63,14.634 h 79.068 c 7.2575,0 14.63,-7.7792 14.63,-14.634 v -79.152 c 0,-3.0378 -0.91364,-5.8522 -2.4851,-8.185"
       fill="none"
       stroke="#6699ff"
       stroke-linecap="round"
       stroke-width="5.0023"
       id="path1" />
    <rect
       x="15.22"
       y="15.925"
       width="108.33"
       height="108.41"
       rx="14.63"
       ry="14.63"
       fill="none"
       stroke="#000000"
       stroke-linecap="round"
       stroke-width="5"
       id="rect1" />
    <rect
       x="16.656"
       y="17.302"
       width="105.46"
       height="95.915001"
       rx="14.63"
       ry="14.63"
       fill="none"
       stroke="#000000"
       stroke-linecap="round"
       stroke-width="5"
       id="rect2" />
    <g
       fill="none"
       stroke="#000000"
       stroke-linecap="round"
       id="g5">
      <path
         d="M 69.36,50.123 96.422,77.504"
         stroke-width="5"
         id="path2" />
      <path
         d="M 42.298,77.504 69.36,50.123"
         stroke-width="5"
         id="path3" />
      <path
         d="M 69.36,54.368 96.422,77.504"
         stroke-width="5.0011"
         id="path4" />
      <path
         d="M 42.298,77.504 69.36,54.395"
         stroke-width="5"
         id="path5" />
    </g>
  </g>
</svg>
